<?xml version="1.0" encoding="UTF-8"?>
<svg width="65px" height="46px" viewBox="0 0 65 46" version="1.1" xmlns="http://www.w3.org/2000/svg" xmlns:xlink="http://www.w3.org/1999/xlink">
    <!-- Generator: Sketch 60 (88103) - https://sketch.com -->
    <title>Group 9 Copy 2</title>
    <desc>Created with Sketch.</desc>
    <g id="About-Me-Desktop-HD" stroke="none" stroke-width="1" fill="none" fill-rule="evenodd">
        <g id="Desktop-HD-Copy-17" transform="translate(-879.000000, -2227.000000)" fill-rule="nonzero">
            <g id="Group-22" transform="translate(192.000000, 1701.000000)">
                <g id="Group-9-Copy-2" transform="translate(687.000000, 526.000000)">
                    <path d="M7.59501609,42.4076354 L0,26.5791395 L21.1715949,26.5791395 C22.3824997,26.5791395 23.3642178,27.5607525 23.3642178,28.7718676 L23.3642178,28.7940503 L63.2330322,28.7940503 L63.2330322,32.3833454 C63.2330322,35.5107977 61.7236591,38.4460696 59.1797918,40.2653705 L59.1178693,40.309736 C58.0219784,41.0932812 57.6615876,42.5592351 58.2690375,43.7618345 L58.287856,43.7991562 C58.6600216,44.5359178 58.1246919,45.4060914 57.2994095,45.4060914 L12.5160121,45.4060914 C10.4438699,45.4060914 8.54498447,44.249119 7.59501609,42.4076354 Z M47.1877552,11.0745539 L55.4808445,11.0745539 L55.4808445,7.86320659 L52.617798,7.86320659 L52.617798,6.57050947 L55.4808445,6.57050947 L55.4808445,-2.84217094e-13 L56.5882999,-2.84217094e-13 L56.5882999,6.57050947 L59.4512414,6.57050947 L59.4512414,7.86320659 L56.5882999,7.86320659 L56.5882999,11.0745539 L64.3404876,11.0745539 L64.3404876,13.2895698 L61.0181215,13.2895698 L61.0181215,27.6864898 L49.9433573,27.6864898 L49.9433573,13.2895698 L47.1877552,11.0745539 Z M51.9441152,20.1864075 L51.9441152,23.4935296 L55.5480236,23.4935296 L55.5480236,20.1864075 L51.9441152,20.1864075 Z M51.9441152,14.8866226 L51.9441152,18.1938498 L55.5480236,18.1938498 L55.5480236,14.8866226 L51.9441152,14.8866226 Z" id="Shape" fill="#519596"></path>
                    <path d="M25.5792337,13.2895698 L33.3314214,13.2895698 C33.9430766,13.2895698 34.4388768,13.78537 34.4388768,14.3970252 L34.4388768,26.5791395 C34.4388768,27.1907947 33.9430766,27.6867001 33.3314214,27.6867001 L25.5792337,27.6867001 C24.9676837,27.6867001 24.4717783,27.1907947 24.4717783,26.5791395 L24.4717783,14.3970252 C24.4716732,13.78537 24.9675785,13.2895698 25.5792337,13.2895698 Z" id="Path" fill="#FF9863"></path>
                    <path d="M12.2896639,17.7193913 L21.149307,17.7193913 C21.760857,17.7193913 22.2567624,18.2151915 22.2567624,18.8268467 L22.2567624,23.2565631 C22.2567624,23.8682183 21.760857,24.3641236 21.149307,24.3641236 L12.2896639,24.3641236 C11.6780088,24.3641236 11.1822085,23.8682183 11.1822085,23.2565631 L11.1822085,18.8268467 C11.1822085,18.2151915 11.6780088,17.7193913 12.2896639,17.7193913 Z" id="Path" fill="#FF9863"></path>
                    <path d="M46.6210963,27.6864898 L37.7614532,27.6864898 C37.1497981,27.6864898 36.6539978,27.1905844 36.6539978,26.5791395 L36.6539978,17.7193913 C36.6539978,17.1077362 37.1497981,16.6119359 37.7614532,16.6119359 L46.6210963,16.6119359 C47.2327515,16.6119359 47.7285517,17.1077362 47.7285517,17.7193913 L47.7285517,26.5791395 C47.7285517,27.1906896 47.2326463,27.6864898 46.6210963,27.6864898 Z" id="Path" fill="#FF9863"></path>
                </g>
            </g>
        </g>
    </g>
</svg>