<?xml version="1.0" encoding="UTF-8"?>
<svg width="48px" height="46px" viewBox="0 0 48 46" version="1.1" xmlns="http://www.w3.org/2000/svg" xmlns:xlink="http://www.w3.org/1999/xlink">
    <!-- Generator: Sketch 60 (88103) - https://sketch.com -->
    <title>map copy</title>
    <desc>Created with Sketch.</desc>
    <g id="About-Me-Desktop-HD" stroke="none" stroke-width="1" fill="none" fill-rule="evenodd">
        <g id="Desktop-HD-Copy-17" transform="translate(-960.000000, -2048.000000)" fill-rule="nonzero">
            <g id="Group-22" transform="translate(192.000000, 1701.000000)">
                <g id="map-copy" transform="translate(768.000000, 347.000000)">
                    <path d="M46.607715,0.124540385 C46.3464415,-0.0339655595 46.0207205,-0.0409328538 45.7516087,0.101025767 L31.3528242,7.72411661 L16.9549106,0.101025767 C16.9435887,0.0949293844 16.9305251,0.0931875608 16.9192032,0.0879620901 C16.8773994,0.0679311191 16.8347248,0.0531256188 16.7911792,0.040061942 C16.7667937,0.0330946478 16.743279,0.0252564417 16.7188935,0.020030971 C16.6709934,0.0104509414 16.6222223,0.00696729427 16.5725803,0.0052254707 C16.5508075,0.00435455892 16.5290347,0.00174182357 16.506391,0.00261273535 C16.4593618,0.0052254707 16.4132035,0.0139345885 16.3670451,0.0243855299 C16.3409178,0.0296110006 16.3147904,0.0330946478 16.289534,0.0409328538 C16.2834376,0.0426746774 16.2773412,0.0426746774 16.2721158,0.0444165009 L0.59570366,5.2698872 C0.23950074,5.3883312 0,5.7210195 0,6.09638248 L0,43.5455892 C0,43.8251518 0.134120415,44.0881672 0.362299302,44.2527695 C0.512096129,44.3598917 0.690633044,44.4165009 0.870911783,44.4165009 C0.963228432,44.4165009 1.05641599,44.4016954 1.14611991,44.3712135 L16.5142292,39.2485104 L31.0210068,45.2220943 C31.0331996,45.2273198 31.0471342,45.225578 31.0593269,45.2299326 C31.1551272,45.2638981 31.2526693,45.2874127 31.3528242,45.2874127 C31.4312063,45.2874127 31.5087174,45.2743491 31.5844867,45.2534472 C31.6088723,45.2464799 31.631516,45.235158 31.6559015,45.2264489 C31.690738,45.2133852 31.7273163,45.2038052 31.7604109,45.186387 L46.5659112,37.3481809 C46.8506994,37.1975132 47.0292363,36.9005323 47.0292363,36.5782949 L47.0292363,0.870911783 C47.0292363,0.565221747 46.8689885,0.282175418 46.607715,0.124540385 Z M1.74182357,6.72430988 L15.6764121,2.07973734 L15.6764121,25.5873882 C15.30192,25.6553193 14.9326534,25.7319595 14.5755796,25.826018 C14.1105127,25.9496875 13.8335628,26.4260762 13.9572322,26.8911431 C14.0608707,27.2813116 14.4127191,27.5391015 14.798533,27.5391015 C14.8716896,27.5391015 14.9474589,27.5295215 15.0223574,27.5103614 C15.2313762,27.4546231 15.4595551,27.4267539 15.6764121,27.3814665 L15.6764121,37.693062 L1.74182357,42.3367636 L1.74182357,6.72430988 Z M17.4182357,27.1376112 C17.6977983,27.1158384 17.9686519,27.080131 18.2551819,27.0740346 C18.7359252,27.0635837 19.1173846,26.665577 19.1078045,26.1848337 C19.0973536,25.7101868 18.7097978,25.332211 18.2368927,25.332211 C18.2307964,25.332211 18.2238291,25.332211 18.2177327,25.332211 C17.94775,25.3383074 17.6821219,25.3531129 17.4182357,25.3714021 L17.4182357,2.31749626 L30.4819124,9.23340673 L30.4819124,27.6915111 C29.8600814,27.6645128 29.2277994,27.5913562 28.5650356,27.4633322 C28.0912596,27.3701446 27.6357727,27.6801892 27.544327,28.1522234 C27.4528812,28.6242576 27.7620549,29.0814863 28.2340891,29.172932 C29.0057169,29.3227288 29.7547011,29.3958854 30.4827833,29.4246255 L30.4827833,43.1162297 L17.4182357,37.7366076 L17.4182357,27.1376112 Z M45.2874127,36.0531351 L32.223736,42.9690456 L32.223736,29.330567 C32.5477152,29.1833829 32.7637013,28.8524365 32.7349612,28.4770735 C32.7097048,28.1513525 32.5006859,27.8900789 32.223736,27.7620549 L32.223736,9.23340673 L45.2874127,2.31749626 L45.2874127,36.0531351 Z" id="Shape" fill="#519596"></path>
                    <path d="M9.58002962,6.96729427 C7.17892583,6.96729427 5.2254707,8.9207494 5.2254707,11.3218532 C5.2254707,13.4251051 6.72430988,15.183476 8.70911783,15.58845 L8.70911783,17.4182357 C8.70911783,17.8998499 9.09928631,18.2891474 9.58002962,18.2891474 C10.0607729,18.2891474 10.4509414,17.8998499 10.4509414,17.4182357 L10.4509414,15.58845 C12.4357494,15.183476 13.9345885,13.4251051 13.9345885,11.3218532 C13.9345885,8.9207494 11.9811334,6.96729427 9.58002962,6.96729427 Z M9.58002962,13.9345885 C8.13954153,13.9345885 6.96729427,12.7623413 6.96729427,11.3218532 C6.96729427,9.88136509 8.13954153,8.70911783 9.58002962,8.70911783 C11.0205177,8.70911783 12.192765,9.88136509 12.192765,11.3218532 C12.192765,12.7623413 11.0205177,13.9345885 9.58002962,13.9345885 Z" id="Shape" fill="#FF9863"></path>
                    <path d="M39.2519941,23.22983 C39.3565035,23.2707628 39.4636256,23.289052 39.569006,23.289052 C39.9173707,23.289052 40.2457044,23.0791623 40.3806957,22.7351521 C40.7900243,21.6909289 41.118358,20.5117143 41.3587297,19.2306031 C41.4475627,18.7585689 41.1357763,18.3039529 40.6628712,18.214249 C40.1873533,18.135867 39.7353501,18.4380734 39.6465171,18.9109785 C39.4270473,20.0849675 39.1283246,21.1579309 38.759058,22.1011283 C38.5840047,22.5479061 38.8043454,23.0539058 39.2519941,23.22983 Z" id="Path" fill="#519596"></path>
                    <path d="M11.1520254,27.2961171 C10.1008349,27.9553973 9.15328284,28.7810217 8.33462577,29.7520883 C8.02458117,30.1196131 8.07161041,30.6691584 8.43913518,30.979203 C8.6028666,31.1168071 8.80230539,31.1838673 9.00000237,31.1838673 C9.24821223,31.1838673 9.49380935,31.078487 9.66624988,30.8746936 C10.3682048,30.042102 11.1790237,29.3340507 12.0769337,28.7723126 C12.4845204,28.5162645 12.607319,27.978912 12.3521418,27.5713252 C12.0969647,27.1637385 11.5587412,27.040069 11.1520254,27.2961171 Z" id="Path" fill="#519596"></path>
                    <path d="M7.51335595,32.4641076 C7.07615824,32.2637979 6.55883664,32.4527858 6.35765602,32.8899835 C5.46410053,34.8286331 5.24288894,36.3936616 5.23330891,36.4598509 C5.16799052,36.9362396 5.50067882,37.3743083 5.97706757,37.4396267 C6.01712951,37.445723 6.05806236,37.4483358 6.09725339,37.4483358 C6.52487108,37.4483358 6.89762132,37.1330657 6.95945606,36.6984807 C6.96119788,36.6845461 7.16063668,35.3076346 7.93923182,33.6206785 C8.14041244,33.1826099 7.94968276,32.6661592 7.51335595,32.4641076 Z" id="Path" fill="#519596"></path>
                    <path d="M35.204867,28.5040718 C35.3381165,28.5040718 35.4739788,28.4735898 35.600261,28.4091424 C36.725479,27.8334697 37.7174475,27.0165544 38.5474264,25.9827821 C38.8487619,25.6074192 38.788669,25.0587447 38.413306,24.7582802 C38.038814,24.4595574 37.4901395,24.5179085 37.1888041,24.8924006 C36.5129765,25.7345723 35.7117377,26.3955943 34.8068603,26.8580485 C34.3783717,27.0775183 34.2085439,27.6018071 34.4280137,28.0302957 C34.583036,28.3307603 34.888726,28.5040718 35.204867,28.5040718 Z" id="Path" fill="#519596"></path>
                    <path d="M25.4044967,26.5035874 C25.0204246,26.3424687 24.7957294,26.230992 24.7809239,26.2231538 C24.7243146,26.1944137 24.6642217,26.1708991 24.602387,26.1552227 C23.6591895,25.9131092 22.7299266,25.7215086 21.8389839,25.5856464 C21.364337,25.510748 20.919301,25.8390817 20.8461444,26.3145995 C20.7738588,26.7901174 21.1004507,27.2351533 21.5759685,27.307439 C22.3824328,27.4311084 23.2246045,27.603549 24.0815817,27.8212769 C24.1982839,27.8770153 24.4212373,27.9823956 24.7330237,28.1121615 C24.8427586,28.1583198 24.9568481,28.1792217 25.0683248,28.1792217 C25.4088513,28.1792217 25.7328305,27.978912 25.8721763,27.6444818 C26.0576806,27.198575 25.8486617,26.6882207 25.4044967,26.5035874 Z" id="Path" fill="#519596"></path>
                    <path d="M40.8657936,16.487231 C40.8849537,16.4881019 40.9032428,16.4889728 40.9224029,16.4889728 C41.3778897,16.4889728 41.7610909,16.1353826 41.7907019,15.6729285 C41.8446985,14.8359822 41.8716967,13.9502649 41.8716967,13.0427749 C41.8716967,12.7405685 41.869084,12.4340075 41.8629876,12.1213502 C41.8542785,11.639736 41.4362408,11.273953 40.9763994,11.2661148 C40.4956561,11.2748239 40.1124549,11.6719597 40.121164,12.152703 C40.1263895,12.4549094 40.1298732,12.7518903 40.1298732,13.0427749 C40.1298732,13.9136866 40.1037458,14.7610838 40.052362,15.5623227 C40.0218801,16.042195 40.3859212,16.4558781 40.8657936,16.487231 Z" id="Path" fill="#519596"></path>
                    <path d="M7.22247142,24.1303528 C7.39229922,24.3001806 7.61525263,24.3855299 7.83820605,24.3855299 C8.06115947,24.3855299 8.28411288,24.3001806 8.45394068,24.1303528 L9.58002962,23.0042638 L10.7061186,24.1303528 C10.8759463,24.3001806 11.0988998,24.3855299 11.3218532,24.3855299 C11.5448066,24.3855299 11.76776,24.3001806 11.9375878,24.1303528 C12.2781143,23.7898263 12.2781143,23.23941 11.9375878,22.8988835 L10.8114989,21.7727946 L11.9375878,20.6467056 C12.2781143,20.3061791 12.2781143,19.7557629 11.9375878,19.4152364 C11.5970613,19.0747099 11.0466451,19.0747099 10.7061186,19.4152364 L9.58002962,20.5413253 L8.45394068,19.4152364 C8.11341417,19.0747099 7.56299793,19.0747099 7.22247142,19.4152364 C6.88194491,19.7557629 6.88194491,20.3061791 7.22247142,20.6467056 L8.34856035,21.7727946 L7.22247142,22.8988835 C6.88194491,23.2385391 6.88194491,23.7898263 7.22247142,24.1303528 Z" id="Path" fill="#519596"></path>
                </g>
            </g>
        </g>
    </g>
</svg>