<?xml version="1.0" encoding="UTF-8"?>
<svg width="42px" height="42px" viewBox="0 0 42 42" version="1.1" xmlns="http://www.w3.org/2000/svg" xmlns:xlink="http://www.w3.org/1999/xlink">
    <!-- Generator: Sketch 60 (88103) - https://sketch.com -->
    <title>pencil-ruler-solid</title>
    <desc>Created with Sketch.</desc>
    <g id="About-Me-Desktop-HD" stroke="none" stroke-width="1" fill="none" fill-rule="evenodd">
        <g id="Desktop-HD-Copy-17" transform="translate(-519.000000, -1864.000000)" fill="#88B4CA" fill-rule="nonzero">
            <g id="Group-22" transform="translate(192.000000, 1701.000000)">
                <g id="pencil-ruler-solid" transform="translate(327.000000, 163.000000)">
                    <path d="M8.8367996,19.6031991 L19.6031991,8.8383996 L16.0735993,5.30879976 L11.1391995,10.2431995 C11.0203564,10.3622731 10.8590321,10.4291874 10.6907995,10.4291874 C10.5225669,10.4291874 10.3612427,10.3622731 10.2423995,10.2431995 L9.34559958,9.34639958 C9.09759959,9.09839959 9.09759959,8.69679961 9.34559958,8.44959962 L14.2799994,3.51519984 L11.5887995,0.823199963 C10.5975995,-0.167999992 8.9911996,-0.167999992 7.99999964,0.823199963 L0.823199963,7.99999964 C-0.167199993,8.9911996 -0.167999992,10.5975995 0.823199963,11.5887995 L8.8367996,19.6031991 Z M39.9143982,10.2591995 C41.4151981,8.75839961 41.4143981,6.32559972 39.9143982,4.82479978 L36.2943984,1.20479995 C34.7935984,-0.295999987 32.3599986,-0.295999987 30.8583986,1.20479995 L27.1767988,4.88559978 L36.2327984,13.9415994 L39.9143982,10.2591995 Z M25.3663989,6.6967997 L1.60639993,30.4535986 L0.105599995,39.0487983 C-0.0967999957,40.2079982 0.912799959,41.2175982 2.07279991,41.0135982 L10.6687995,39.5063982 L34.4223985,15.7519993 L25.3663989,6.6967997 Z M40.2967982,29.5311987 L37.6055983,26.8399988 L32.6711985,31.7743986 C32.4231986,32.0223986 32.0215986,32.0223986 31.7743986,31.7743986 L30.8775986,30.8775986 C30.6303986,30.6295986 30.6303986,30.2279986 30.8775986,29.9807987 L35.8119984,25.0463989 L32.2807986,21.515199 L21.514399,32.2799986 L29.5311987,40.2959982 C30.5223986,41.2871982 32.1287986,41.2871982 33.1199985,40.2959982 L40.2967982,33.1199985 C41.2879982,32.1287986 41.2879982,30.5223986 40.2967982,29.5311987 Z" id="Shape"></path>
                </g>
            </g>
        </g>
    </g>
</svg>