<?xml version="1.0" encoding="UTF-8"?>
<svg width="60px" height="43px" viewBox="0 0 60 43" version="1.1" xmlns="http://www.w3.org/2000/svg" xmlns:xlink="http://www.w3.org/1999/xlink">
    <!-- Generator: Sketch 60.1 (88133) - https://sketch.com -->
    <title>Group 28</title>
    <desc>Created with Sketch.</desc>
    <g id="About-Me-Desktop-HD" stroke="none" stroke-width="1" fill="none" fill-rule="evenodd">
        <g id="Desktop-HD-Copy-17" transform="translate(-693.000000, -1784.000000)">
            <g id="Group-22" transform="translate(192.000000, 1701.000000)">
                <g id="Group-9-Copy-3" transform="translate(501.000000, 83.000000)">
                    <g id="Group-28">
                        <line x1="0" y1="42.0077842" x2="59.7999978" y2="42.0077842" id="Path-7" stroke="#B4B4B4" stroke-width="0.649999976" stroke-dasharray="1.698278639012898,1.698278639012898"></line>
                        <line x1="0" y1="33.5163916" x2="59.7999978" y2="33.5163916" id="Path-7" stroke="#B4B4B4" stroke-width="0.649999976" stroke-dasharray="1.698278639012898,1.698278639012898"></line>
                        <line x1="0" y1="25.0249991" x2="59.7999978" y2="25.0249991" id="Path-7" stroke="#B4B4B4" stroke-width="0.649999976" stroke-dasharray="1.698278639012898,1.698278639012898"></line>
                        <polygon id="Rectangle" fill="#67C1C3" points="38.74267 16.9827851 41.8561806 16.9827851 41.8561806 42.4569627 38.74267 42.4569627"></polygon>
                        <polygon id="Rectangle-Copy-16" fill="#67C1C3" points="50.6306195 16.9827851 53.7441301 16.9827851 53.7441301 42.4569627 50.6306195 42.4569627"></polygon>
                        <polygon id="Rectangle-Copy-9" fill="#67C1C3" points="14.9667709 8.49139254 18.0802815 8.49139254 18.0802815 42.4569627 14.9667709 42.4569627"></polygon>
                        <polygon id="Rectangle-Copy-10" fill="#519596" points="41.8561806 12.9010836 44.9696912 12.9010836 44.9696912 42.4569627 41.8561806 42.4569627"></polygon>
                        <polygon id="Rectangle-Copy-12" fill="#67C1C3" points="26.8547204 8.49139254 29.968231 8.49139254 29.968231 42.4569627 26.8547204 42.4569627"></polygon>
                        <polygon id="Rectangle-Copy-8" fill="#519596" points="6.19233189 -6.32383035e-13 9.30584249 -6.32383035e-13 9.30584249 42.4569627 6.19233189 42.4569627"></polygon>
                        <polygon id="Rectangle-Copy-8" fill="#FF9863" points="6.19233189 31.4181524 9.30584249 31.4181524 9.30584249 42.4569627 6.19233189 42.4569627"></polygon>
                        <polygon id="Rectangle-Copy-11" fill="#519596" points="18.0802815 21.2284814 21.193792 21.2284814 21.193792 42.4569627 18.0802815 42.4569627"></polygon>
                        <polygon id="Rectangle-Copy-13" fill="#519596" points="29.968231 7.07616045 33.0817416 7.07616045 33.0817416 42.4569627 29.968231 42.4569627"></polygon>
                        <polygon id="Rectangle-Copy-18" fill="#519596" points="53.7441301 4.95331232 56.8576407 4.95331232 56.8576407 42.4569627 53.7441301 42.4569627"></polygon>
                        <polygon id="Rectangle-Copy-14" fill="#FF9863" points="18.0802815 39.9095449 21.193792 39.9095449 21.193792 42.4569627 18.0802815 42.4569627"></polygon>
                        <polygon id="Rectangle-Copy-15" fill="#FF9863" points="29.968231 36.9375576 33.0817416 36.9375576 33.0817416 42.4569627 29.968231 42.4569627"></polygon>
                        <polygon id="Rectangle-Copy-17" fill="#FF9863" points="50.6306195 36.7960343 53.7441301 36.7960343 53.7441301 42.3154395 50.6306195 42.3154395"></polygon>
                        <polygon id="Rectangle-Copy-9" fill="#67C1C3" transform="translate(4.635577, 29.295304) scale(-1, 1) translate(-4.635577, -29.295304) " points="3.07882129 16.1336458 6.19233189 16.1336458 6.19233189 42.4569627 3.07882129 42.4569627"></polygon>
                    </g>
                </g>
            </g>
        </g>
    </g>
</svg>