<?xml version="1.0" encoding="UTF-8"?>
<svg width="42px" height="52px" viewBox="0 0 42 52" version="1.1" xmlns="http://www.w3.org/2000/svg" xmlns:xlink="http://www.w3.org/1999/xlink">
    <!-- Generator: Sketch 61.2 (89653) - https://sketch.com -->
    <title>Group 8</title>
    <desc>Created with Sketch.</desc>
    <g id="About-Me-Desktop-HD" stroke="none" stroke-width="1" fill="none" fill-rule="evenodd">
        <g id="Desktop-HD-Copy-21" transform="translate(-814.000000, -1806.000000)">
            <g id="Group-52" transform="translate(364.000000, 1777.000000)">
                <g id="Group-51" transform="translate(405.000000, 0.000000)">
                    <g id="Group-50">
                        <g id="Group-49">
                            <g id="Group-8" transform="translate(45.000000, 29.000000)">
                                <g id="Group-5-Copy-3" transform="translate(0.000000, 0.800000)">
                                    <g id="Group-53">
                                        <path d="M1.060186,2.95064602 L22.0794316,7.68144553 C22.4760695,7.77071677 22.7578581,8.12297658 22.7578581,8.52953649 L22.7578581,49.6530139 C22.7578581,50.1331185 22.3686565,50.5223201 21.8885519,50.5223201 C21.8225698,50.5223201 21.7568022,50.5148079 21.6925196,50.4999287 L0.673273938,45.6346798 C0.279112599,45.5434447 -3.4065706e-15,45.1923475 0,44.787765 L0,3.79873698 C1.63248751e-16,3.31863239 0.389201665,2.92943073 0.869306249,2.92943073 C0.933521115,2.92943073 0.997538284,2.9365459 1.060186,2.95064602 Z" id="Rectangle" fill="#377475"></path>
                                        <g id="Group-7-Copy" transform="translate(15.300000, 0.200000)" stroke-width="2.41721581">
                                            <polyline id="Path-14" stroke="#FF9863" points="7.40251272 1.84923603 0 8.80236407 7.40251272 15.1426018"></polyline>
                                            <polyline id="Path-14-Copy" stroke="#FF9863" transform="translate(20.872734, 8.495919) scale(-1, 1) translate(-20.872734, -8.495919) " points="24.5739901 1.84923603 17.1714774 8.80236407 24.5739901 15.1426018"></polyline>
                                            <line x1="10.0387099" y1="17.1714774" x2="14.0722658" y2="-1.23865716e-13" id="Path-15" stroke="#519596"></line>
                                        </g>
                                    </g>
                                    <path d="M0.930922815,8.63447202 L21.7823843,13.3277569 C21.9410376,13.3634668 22.053751,13.5043699 22.053751,13.6669924 L22.053751,26.1179374 C22.053751,26.3099792 21.8980703,26.4656599 21.7060285,26.4656599 C21.6803412,26.4656599 21.6547331,26.4628135 21.6296728,26.4571729 L0.778211319,21.7638881 C0.619558014,21.7281781 0.506844562,21.587275 0.506844562,21.4246526 L0.506844562,8.97370755 C0.506844562,8.78166571 0.662525231,8.62598504 0.854567067,8.62598504 C0.880254333,8.62598504 0.905862507,8.6288314 0.930922815,8.63447202 Z" id="Rectangle-Copy-27" fill="#519596"></path>
                                    <path d="M0.930922815,22.3768102 L21.7823843,27.0700951 C21.9410376,27.105805 22.053751,27.2467081 22.053751,27.4093306 L22.053751,39.8602756 C22.053751,40.0523174 21.8980703,40.2079981 21.7060285,40.2079981 C21.6803412,40.2079981 21.6547331,40.2051517 21.6296728,40.1995111 L0.778211319,35.5062263 C0.619558014,35.4705163 0.506844562,35.3296133 0.506844562,35.1669908 L0.506844562,22.7160458 C0.506844562,22.5240039 0.662525231,22.3683233 0.854567067,22.3683233 C0.880254333,22.3683233 0.905862507,22.3711696 0.930922815,22.3768102 Z" id="Rectangle-Copy-27" fill="#519596"></path>
                                    <path d="M0.930922815,41.1332448 L21.7823843,45.8265297 C21.9410376,45.8622396 22.053751,46.0031427 22.053751,46.1657652 L22.053751,49.3313465 C22.053751,49.5233884 21.8980703,49.679069 21.7060285,49.679069 C21.6803412,49.679069 21.6547331,49.6762227 21.6296728,49.6705821 L0.778211319,44.9772972 C0.619558014,44.9415872 0.506844562,44.8006842 0.506844562,44.6380617 L0.506844562,41.4724803 C0.506844562,41.2804385 0.662525231,41.1247578 0.854567067,41.1247578 C0.880254333,41.1247578 0.905862507,41.1276042 0.930922815,41.1332448 Z" id="Rectangle-Copy-28" fill="#519596"></path>
                                    <path d="M1.26850475,41.7063111 L3.31263749,42.1703374 C3.43932199,42.1990953 3.52923468,42.3117061 3.52923468,42.4416136 L3.52923468,44.9475131 C3.52923468,45.1011466 3.40469015,45.2256911 3.25105669,45.2256911 C3.23033678,45.2256911 3.20968173,45.2233762 3.18947589,45.2187894 L1.14534316,44.754763 C1.01865866,44.7260051 0.928745968,44.6133944 0.928745968,44.4834868 L0.928745968,41.9775873 C0.928745968,41.8239538 1.05329049,41.6994093 1.20692395,41.6994093 C1.22764386,41.6994093 1.24829891,41.7017243 1.26850475,41.7063111 Z" id="Rectangle-Copy-28" fill="#FF9863"></path>
                                    <path d="M6.23332996,42.9028452 L8.27746269,43.3668715 C8.40414719,43.3956294 8.49405988,43.5082402 8.49405988,43.6381478 L8.49405988,46.1440473 C8.49405988,46.2976807 8.36951536,46.4222253 8.2158819,46.4222253 C8.19516199,46.4222253 8.17450694,46.4199103 8.1543011,46.4153235 L6.11016837,45.9512972 C5.98348387,45.9225393 5.89357117,45.8099285 5.89357117,45.6800209 L5.89357117,43.1741214 C5.89357117,43.020488 6.0181157,42.8959434 6.17174916,42.8959434 C6.19246907,42.8959434 6.21312412,42.8982584 6.23332996,42.9028452 Z" id="Rectangle-Copy-31" fill="#377475"></path>
                                    <path d="M11.6200566,44.2027961 L13.6641893,44.6668224 C13.7908738,44.6955803 13.8807865,44.8081911 13.8807865,44.9380987 L13.8807865,47.4439982 C13.8807865,47.5976316 13.756242,47.7221762 13.6026085,47.7221762 C13.5818886,47.7221762 13.5612336,47.7198612 13.5410277,47.7152744 L11.496895,47.2512481 C11.3702105,47.2224902 11.2802978,47.1098794 11.2802978,46.9799718 L11.2802978,44.4740723 C11.2802978,44.3204389 11.4048423,44.1958943 11.5584758,44.1958943 C11.5791957,44.1958943 11.5998507,44.1982093 11.6200566,44.2027961 Z" id="Rectangle-Copy-32" fill="#377475"></path>
                                    <path d="M17.74978,45.502747 L19.7939127,45.9667734 C19.9205972,45.9955312 20.0105099,46.108142 20.0105099,46.2380496 L20.0105099,48.7439491 C20.0105099,48.8975826 19.8859654,49.0221271 19.7323319,49.0221271 C19.711612,49.0221271 19.6909569,49.0198121 19.6707511,49.0152253 L17.6266184,48.551199 C17.4999339,48.5224411 17.4100212,48.4098303 17.4100212,48.2799227 L17.4100212,45.7740232 C17.4100212,45.6203898 17.5345657,45.4958453 17.6881992,45.4958453 C17.7089191,45.4958453 17.7295741,45.4981602 17.74978,45.502747 Z" id="Rectangle-Copy-33" fill="#377475"></path>
                                </g>
                            </g>
                        </g>
                    </g>
                </g>
            </g>
        </g>
    </g>
</svg>