<?xml version="1.0" encoding="UTF-8"?>
<svg width="382px" height="148px" viewBox="0 0 382 148" version="1.1" xmlns="http://www.w3.org/2000/svg" xmlns:xlink="http://www.w3.org/1999/xlink">
    <!-- Generator: Sketch 47.1 (45422) - http://www.bohemiancoding.com/sketch -->
    <title>svg</title>
    <desc>Created with Sketch.</desc>
    <defs>
        <polygon id="path-1" points="77.818 0 69.542 15.994 83.542 15.994 55.097 70.168 59.346 36.895 36.858 36.895 55.949 0 0.999 0 58.096 109.244 115.191 0"></polygon>
    </defs>
    <g id="Page-1" stroke="none" stroke-width="1" fill="none" fill-rule="evenodd">
        <path d="M356.9564,107.9998 L356.9564,70.6678 L363.5804,70.6678 C364.1324,70.6678 364.5944,70.7158 364.9664,70.8118 C365.3384,70.9078 365.6494,71.0578 365.9014,71.2618 C366.1534,71.4658 366.3464,71.7358 366.4774,72.0718 C366.6094,72.4078 366.7244,72.8158 366.8194,73.2958 L367.4324,76.7878 C368.8004,74.6758 370.3364,73.0078 372.0404,71.7838 C373.7444,70.5598 375.6034,69.9478 377.6204,69.9478 C379.3234,69.9478 380.6914,70.3558 381.7244,71.1718 L380.2834,79.3798 C380.1874,79.8838 379.9964,80.2378 379.7084,80.4418 C379.4204,80.6458 379.0364,80.7478 378.5564,80.7478 C378.1474,80.7478 377.6684,80.6938 377.1154,80.5858 C376.5634,80.4778 375.8684,80.4238 375.0274,80.4238 C372.1004,80.4238 369.7964,81.9838 368.1154,85.1038 L368.1154,107.9998 L356.9564,107.9998 Z" id="Fill-1" fill="#4A4A4A"></path>
        <path d="M333.5921,70.092 C336.0641,70.092 338.3251,70.476 340.3781,71.244 C342.4301,72.012 344.1941,73.128 345.6701,74.592 C347.1461,76.056 348.2981,77.85 349.1261,79.974 C349.9541,82.098 350.3681,84.504 350.3681,87.192 C350.3681,88.032 350.3321,88.716 350.2601,89.244 C350.1881,89.772 350.0561,90.192 349.8631,90.504 C349.6721,90.816 349.4141,91.032 349.0901,91.152 C348.7661,91.272 348.3521,91.332 347.8481,91.332 L326.3201,91.332 C326.6801,94.452 327.6281,96.714 329.1641,98.118 C330.6991,99.522 332.6801,100.224 335.1041,100.224 C336.4001,100.224 337.5161,100.068 338.4521,99.756 C339.3881,99.444 340.2221,99.096 340.9541,98.712 C341.6861,98.328 342.3581,97.98 342.9701,97.668 C343.5821,97.356 344.2241,97.2 344.8961,97.2 C345.7831,97.2 346.4561,97.524 346.9121,98.172 L350.1521,102.168 C349.0001,103.488 347.7581,104.562 346.4261,105.39 C345.0941,106.218 343.7261,106.866 342.3211,107.334 C340.9181,107.802 339.5141,108.126 338.1101,108.306 C336.7061,108.486 335.3681,108.576 334.0961,108.576 C331.4801,108.576 329.0261,108.15 326.7341,107.298 C324.4421,106.446 322.4381,105.18 320.7221,103.5 C319.0061,101.82 317.6501,99.732 316.6541,97.236 C315.6571,94.74 315.1601,91.836 315.1601,88.524 C315.1601,86.028 315.5861,83.664 316.4381,81.432 C317.2901,79.2 318.5141,77.244 320.1101,75.564 C321.7061,73.884 323.6381,72.552 325.9051,71.568 C328.1741,70.584 330.7361,70.092 333.5921,70.092 M333.8081,77.796 C331.6721,77.796 330.0041,78.402 328.8041,79.614 C327.6041,80.826 326.8121,82.572 326.4281,84.852 L340.3601,84.852 C340.3601,83.964 340.2461,83.1 340.0181,82.26 C339.7901,81.42 339.4181,80.67 338.9021,80.01 C338.3861,79.35 337.7081,78.816 336.8681,78.408 C336.0281,78 335.0081,77.796 333.8081,77.796" id="Fill-3" fill="#4A4A4A"></path>
        <path d="M275.6683,107.9998 L275.6683,70.6678 L282.5803,70.6678 C283.2753,70.6678 283.8573,70.8238 284.3253,71.1358 C284.7943,71.4478 285.1243,71.9158 285.3153,72.5398 L285.9643,74.6998 C286.6843,74.0278 287.4283,73.4038 288.1953,72.8278 C288.9643,72.2518 289.7863,71.7658 290.6623,71.3698 C291.5383,70.9738 292.4853,70.6618 293.5063,70.4338 C294.5253,70.2058 295.6363,70.0918 296.8363,70.0918 C298.8763,70.0918 300.6823,70.4458 302.2543,71.1538 C303.8253,71.8618 305.1513,72.8458 306.2313,74.1058 C307.3123,75.3658 308.1283,76.8658 308.6803,78.6058 C309.2313,80.3458 309.5083,82.2358 309.5083,84.2758 L309.5083,107.9998 L298.3483,107.9998 L298.3483,84.2758 C298.3483,82.4518 297.9283,81.0298 297.0883,80.0098 C296.2483,78.9898 295.0123,78.4798 293.3803,78.4798 C292.1553,78.4798 291.0043,78.7438 289.9243,79.2718 C288.8443,79.7998 287.8123,80.5078 286.8283,81.3958 L286.8283,107.9998 L275.6683,107.9998 Z" id="Fill-5" fill="#4A4A4A"></path>
        <path d="M251.0081,70.0198 C252.5921,70.0198 254.0861,70.1758 255.4891,70.4878 C256.8941,70.7998 258.1951,71.2438 259.3961,71.8198 L270.6641,71.8198 L270.6641,75.8878 C270.6641,76.5118 270.4891,77.0038 270.1421,77.3638 C269.7941,77.7238 269.1991,77.9998 268.3601,78.1918 L265.6241,78.8038 C265.9601,79.8838 266.1281,80.9998 266.1281,82.1518 C266.1281,84.0238 265.7371,85.7038 264.9581,87.1918 C264.1781,88.6798 263.1101,89.9458 261.7541,90.9898 C260.3981,92.0338 258.7961,92.8378 256.9471,93.4018 C255.1001,93.9658 253.1201,94.2478 251.0081,94.2478 C249.8321,94.2478 248.7281,94.1758 247.6951,94.0318 C246.8801,94.5118 246.4721,95.0638 246.4721,95.6878 C246.4721,96.3118 246.8021,96.7618 247.4621,97.0378 C248.1221,97.3138 248.9911,97.5058 250.0711,97.6138 C251.1521,97.7218 252.3881,97.7938 253.7791,97.8298 C255.1721,97.8658 256.5881,97.9498 258.0281,98.0818 C259.4681,98.2138 260.8841,98.4358 262.2761,98.7478 C263.6681,99.0598 264.9041,99.5638 265.9841,100.2598 C267.0641,100.9558 267.9341,101.8858 268.5941,103.0498 C269.2541,104.2138 269.5841,105.6958 269.5841,107.4958 C269.5841,109.1758 269.1761,110.8198 268.3601,112.4278 C267.5441,114.0358 266.3441,115.4638 264.7601,116.7118 C263.1761,117.9598 261.2321,118.9618 258.9281,119.7178 C256.6241,120.4738 253.9841,120.8518 251.0081,120.8518 C248.0801,120.8518 245.5541,120.5758 243.4301,120.0238 C241.3061,119.4718 239.5421,118.7458 238.1381,117.8458 C236.7341,116.9458 235.6951,115.9078 235.0241,114.7318 C234.3521,113.5558 234.0161,112.3318 234.0161,111.0598 C234.0161,109.4038 234.5201,108.0058 235.5281,106.8658 C236.5361,105.7258 237.9161,104.8318 239.6681,104.1838 C238.8281,103.6318 238.1551,102.9238 237.6521,102.0598 C237.1481,101.1958 236.8961,100.1038 236.8961,98.7838 C236.8961,98.2318 236.9911,97.6498 237.1841,97.0378 C237.3761,96.4258 237.6761,95.8318 238.0841,95.2558 C238.4911,94.6798 239.0081,94.1278 239.6321,93.5998 C240.2561,93.0718 241.0001,92.6038 241.8631,92.1958 C239.9201,91.1638 238.3901,89.7958 237.2741,88.0918 C236.1571,86.3878 235.6001,84.4078 235.6001,82.1518 C235.6001,80.2798 235.9961,78.5938 236.7881,77.0938 C237.5801,75.5938 238.6661,74.3218 240.0461,73.2778 C241.4261,72.2338 243.0521,71.4298 244.9241,70.8658 C246.7961,70.3018 248.8231,70.0198 251.0081,70.0198 M259.2881,109.3678 C259.2881,108.7678 259.1021,108.2878 258.7301,107.9278 C258.3581,107.5678 257.8541,107.2798 257.2181,107.0638 C256.5821,106.8478 255.8381,106.6918 254.9861,106.5958 C254.1341,106.4998 253.2161,106.4278 252.2321,106.3798 C251.2481,106.3318 250.2281,106.2898 249.1721,106.2538 C248.1151,106.2178 247.0711,106.1398 246.0401,106.0198 C245.3441,106.4998 244.7741,107.0338 244.3301,107.6218 C243.8861,108.2098 243.6641,108.8758 243.6641,109.6198 C243.6641,110.1478 243.7781,110.6278 244.0061,111.0598 C244.2341,111.4918 244.6361,111.8638 245.2121,112.1758 C245.7881,112.4878 246.5621,112.7338 247.5331,112.9138 C248.5061,113.0938 249.7361,113.1838 251.2241,113.1838 C252.8321,113.1838 254.1521,113.0878 255.1841,112.8958 C256.2161,112.7038 257.0381,112.4398 257.6501,112.1038 C258.2621,111.7678 258.6881,111.3658 258.9281,110.8978 C259.1681,110.4298 259.2881,109.9198 259.2881,109.3678 M251.0081,87.3718 C252.8561,87.3718 254.1941,86.9098 255.0221,85.9858 C255.8501,85.0618 256.2641,83.8678 256.2641,82.4038 C256.2641,80.8918 255.8501,79.7038 255.0221,78.8398 C254.1941,77.9758 252.8561,77.5438 251.0081,77.5438 C249.1601,77.5438 247.8211,77.9758 246.9941,78.8398 C246.1661,79.7038 245.7521,80.8918 245.7521,82.4038 C245.7521,83.1238 245.8541,83.7838 246.0581,84.3838 C246.2621,84.9838 246.5801,85.5058 247.0121,85.9498 C247.4441,86.3938 247.9891,86.7418 248.6501,86.9938 C249.3101,87.2458 250.0961,87.3718 251.0081,87.3718" id="Fill-7" fill="#4A4A4A"></path>
        <path d="M229.4076,62.9461 C229.0486,63.7261 228.5556,64.4101 227.9316,64.9981 C227.3076,65.5861 226.5826,66.0541 225.7546,66.4021 C224.9266,66.7501 224.0446,66.9241 223.1076,66.9241 C222.1956,66.9241 221.3436,66.7501 220.5516,66.4021 C219.7596,66.0541 219.0576,65.5861 218.4456,64.9981 C217.8346,64.4101 217.3536,63.7261 217.0066,62.9461 C216.6576,62.1661 216.4836,61.3321 216.4836,60.4441 C216.4836,59.5321 216.6576,58.6801 217.0066,57.8881 C217.3536,57.0961 217.8346,56.4001 218.4456,55.8001 C219.0576,55.2001 219.7596,54.7321 220.5516,54.3961 C221.3436,54.0601 222.1956,53.8921 223.1076,53.8921 C224.0446,53.8921 224.9266,54.0601 225.7546,54.3961 C226.5826,54.7321 227.3076,55.2001 227.9316,55.8001 C228.5556,56.4001 229.0486,57.0961 229.4076,57.8881 C229.7676,58.6801 229.9476,59.5321 229.9476,60.4441 C229.9476,61.3321 229.7676,62.1661 229.4076,62.9461 Z" id="Fill-9" fill="#4A4A4A"></path>
        <polygon id="Fill-11" fill="#4A4A4A" points="217.492 108 228.652 108 228.652 70.668 217.492 70.668"></polygon>
        <path d="M208.096,78.8401 C207.808,79.2961 207.502,79.6201 207.178,79.8121 C206.854,80.0041 206.44,80.1001 205.936,80.1001 C205.408,80.1001 204.88,79.9861 204.352,79.7581 C203.824,79.5301 203.254,79.2841 202.642,79.0201 C202.03,78.7561 201.34,78.5101 200.572,78.2821 C199.804,78.0541 198.928,77.9401 197.944,77.9401 C196.528,77.9401 195.442,78.2101 194.686,78.7501 C193.93,79.2901 193.552,80.0401 193.552,81.0001 C193.552,81.6961 193.798,82.2721 194.29,82.7281 C194.782,83.1841 195.436,83.5861 196.252,83.9341 C197.068,84.2821 197.992,84.6121 199.024,84.9241 C200.056,85.2361 201.112,85.5841 202.192,85.9681 C203.272,86.3521 204.328,86.8021 205.36,87.3181 C206.392,87.8341 207.316,88.4701 208.132,89.2261 C208.948,89.9821 209.602,90.9001 210.094,91.9801 C210.586,93.0601 210.832,94.3561 210.832,95.8681 C210.832,97.7161 210.496,99.4201 209.824,100.9801 C209.152,102.5401 208.15,103.8841 206.818,105.0121 C205.486,106.1401 203.842,107.0161 201.886,107.6401 C199.93,108.2641 197.68,108.5761 195.136,108.5761 C193.864,108.5761 192.592,108.4561 191.32,108.2161 C190.048,107.9761 188.818,107.6521 187.63,107.2441 C186.442,106.8361 185.344,106.3501 184.336,105.7861 C183.328,105.2221 182.464,104.6161 181.744,103.9681 L184.336,99.8641 C184.648,99.3841 185.02,99.0061 185.452,98.7301 C185.884,98.4541 186.448,98.3161 187.144,98.3161 C187.792,98.3161 188.374,98.4601 188.89,98.7481 C189.406,99.0361 189.964,99.3481 190.564,99.6841 C191.164,100.0201 191.866,100.3321 192.67,100.6201 C193.474,100.9081 194.488,101.0521 195.712,101.0521 C196.576,101.0521 197.308,100.9621 197.908,100.7821 C198.508,100.6021 198.988,100.3561 199.348,100.0441 C199.708,99.7321 199.972,99.3841 200.14,99.0001 C200.308,98.6161 200.392,98.2201 200.392,97.8121 C200.392,97.0681 200.14,96.4561 199.636,95.9761 C199.132,95.4961 198.472,95.0821 197.656,94.7341 C196.84,94.3861 195.91,94.0621 194.866,93.7621 C193.822,93.4621 192.76,93.1201 191.68,92.7361 C190.6,92.3521 189.538,91.8901 188.494,91.3501 C187.45,90.8101 186.52,90.1261 185.704,89.2981 C184.888,88.4701 184.228,87.4561 183.724,86.2561 C183.22,85.0561 182.968,83.6041 182.968,81.9001 C182.968,80.3161 183.274,78.8101 183.886,77.3821 C184.498,75.9541 185.416,74.7001 186.64,73.6201 C187.864,72.5401 189.4,71.6821 191.248,71.0461 C193.096,70.4101 195.256,70.0921 197.728,70.0921 C199.072,70.0921 200.374,70.2121 201.634,70.4521 C202.894,70.6921 204.076,71.0281 205.18,71.4601 C206.284,71.8921 207.292,72.4021 208.204,72.9901 C209.116,73.5781 209.92,74.2201 210.616,74.9161 L208.096,78.8401 Z" id="Fill-13" fill="#4A4A4A"></path>
        <path d="M161.908,70.092 C164.38,70.092 166.642,70.476 168.694,71.244 C170.746,72.012 172.51,73.128 173.986,74.592 C175.462,76.056 176.614,77.85 177.442,79.974 C178.27,82.098 178.684,84.504 178.684,87.192 C178.684,88.032 178.648,88.716 178.576,89.244 C178.504,89.772 178.372,90.192 178.18,90.504 C177.988,90.816 177.73,91.032 177.406,91.152 C177.082,91.272 176.668,91.332 176.164,91.332 L154.636,91.332 C154.996,94.452 155.944,96.714 157.48,98.118 C159.016,99.522 160.996,100.224 163.42,100.224 C164.716,100.224 165.832,100.068 166.768,99.756 C167.704,99.444 168.538,99.096 169.27,98.712 C170.002,98.328 170.674,97.98 171.286,97.668 C171.898,97.356 172.54,97.2 173.212,97.2 C174.1,97.2 174.772,97.524 175.228,98.172 L178.468,102.168 C177.316,103.488 176.074,104.562 174.742,105.39 C173.41,106.218 172.042,106.866 170.638,107.334 C169.234,107.802 167.83,108.126 166.426,108.306 C165.022,108.486 163.684,108.576 162.412,108.576 C159.796,108.576 157.342,108.15 155.05,107.298 C152.758,106.446 150.754,105.18 149.038,103.5 C147.322,101.82 145.966,99.732 144.97,97.236 C143.974,94.74 143.476,91.836 143.476,88.524 C143.476,86.028 143.902,83.664 144.754,81.432 C145.606,79.2 146.83,77.244 148.426,75.564 C150.022,73.884 151.954,72.552 154.222,71.568 C156.49,70.584 159.052,70.092 161.908,70.092 M162.124,77.796 C159.988,77.796 158.32,78.402 157.12,79.614 C155.92,80.826 155.128,82.572 154.744,84.852 L168.676,84.852 C168.676,83.964 168.562,83.1 168.334,82.26 C168.106,81.42 167.734,80.67 167.218,80.01 C166.702,79.35 166.024,78.816 165.184,78.408 C164.344,78 163.324,77.796 162.124,77.796" id="Fill-14" fill="#4A4A4A"></path>
        <path d="M126.1141,58.5478 L121.4391,67.4938 C122.2141,68.0538 122.9171,68.6968 123.5501,69.4258 C124.8101,70.8778 125.7761,72.6478 126.4481,74.7358 C127.1201,76.8238 127.4561,79.1638 127.4561,81.7558 C127.4561,84.3718 127.1201,86.7238 126.4481,88.8118 C125.7761,90.8998 124.8101,92.6698 123.5501,94.1218 C122.2901,95.5738 120.7481,96.6898 118.9241,97.4698 C117.1001,98.2498 115.0241,98.6398 112.6961,98.6398 L105.1601,98.6398 L100.2691,107.9998 L112.6961,107.9998 C116.7761,107.9998 120.4901,107.3458 123.8381,106.0378 C127.1861,104.7298 130.0481,102.9058 132.4241,100.5658 C134.8001,98.2258 136.6421,95.4538 137.9501,92.2498 C139.2581,89.0458 139.9121,85.5478 139.9121,81.7558 C139.9121,77.9878 139.2581,74.5018 137.9501,71.2978 C136.6421,68.0938 134.8001,65.3278 132.4241,62.9998 C130.6071,61.2198 128.5001,59.7388 126.1141,58.5478 Z" id="Fill-15" fill="#4A4A4A"></path>
        <g id="Group-19" transform="translate(1.000000, 1.000000)">
            <mask id="mask-2" fill="white">
                <use xlink:href="#path-1"></use>
            </mask>
            <g id="Clip-18"></g>
            <polygon id="Fill-17" fill="#67C0C2" mask="url(#mask-2)" points="-4 114.244 120.192 114.244 120.192 -5 -4 -5"></polygon>
        </g>
        <g id="svg" font-size="18" font-family="Lato-Regular, Lato" letter-spacing="0.0449999981" fill="#4A4A4A" font-weight="normal">
            <text id="of-Product-Expirienc">
                <tspan x="211" y="144">of Product Expirience</tspan>
            </text>
        </g>
    </g>
</svg>