<?xml version="1.0" encoding="UTF-8"?>
<svg width="18px" height="18px" viewBox="0 0 18 18" version="1.1" xmlns="http://www.w3.org/2000/svg" xmlns:xlink="http://www.w3.org/1999/xlink">
    <!-- Generator: Sketch 62 (91390) - https://sketch.com -->
    <title>Path</title>
    <desc>Created with Sketch.</desc>
    <g id="About-Me-Desktop-HD" stroke="none" stroke-width="1" fill="none" fill-rule="evenodd">
        <g id="Desktop-HD-Copy-24" transform="translate(-441.000000, -2827.000000)" fill="#BABABA" fill-rule="nonzero">
            <g id="times-solid" transform="translate(441.000000, 2827.000000)">
                <path d="M12.4118182,9 L17.5290341,3.88278409 C18.1569886,3.25482955 18.1569886,2.23670455 17.5290341,1.60823864 L16.3917614,0.470965909 C15.7638068,-0.156988636 14.7456818,-0.156988636 14.1172159,0.470965909 L9,5.58818182 L3.88278409,0.470965909 C3.25482955,-0.156988636 2.23670455,-0.156988636 1.60823864,0.470965909 L0.470965909,1.60823864 C-0.156988636,2.23619318 -0.156988636,3.25431818 0.470965909,3.88278409 L5.58818182,9 L0.470965909,14.1172159 C-0.156988636,14.7451705 -0.156988636,15.7632955 0.470965909,16.3917614 L1.60823864,17.5290341 C2.23619318,18.1569886 3.25482955,18.1569886 3.88278409,17.5290341 L9,12.4118182 L14.1172159,17.5290341 C14.7451705,18.1569886 15.7638068,18.1569886 16.3917614,17.5290341 L17.5290341,16.3917614 C18.1569886,15.7638068 18.1569886,14.7456818 17.5290341,14.1172159 L12.4118182,9 Z" id="Path"></path>
            </g>
        </g>
    </g>
</svg>