<?xml version="1.0" encoding="UTF-8"?>
<svg width="64px" height="45px" viewBox="0 0 64 45" version="1.1" xmlns="http://www.w3.org/2000/svg" xmlns:xlink="http://www.w3.org/1999/xlink">
    <!-- Generator: Sketch 60 (88103) - https://sketch.com -->
    <title>brain 01 copy 3</title>
    <desc>Created with Sketch.</desc>
    <defs>
        <path d="M32.1929981,39.8963412 C49.5453765,39.8957699 63.5220864,37.4360072 63.5220864,24.4199269 C63.5220864,11.4038466 50.5472508,1.52501123 33.1948725,1.52558254 C15.8424941,1.52615385 3.18560273,9.10072379 1.17454659,22.7523329 C-0.326321965,32.9406466 8.02471442,37.4708366 19.5714556,39.1134264 C19.8869343,39.1583051 17.1328935,44.4597585 20.2159146,45.0293008 C24.0613822,45.7396938 23.1292007,39.5337822 24.4768811,39.6328342 C24.7558458,39.6533376 25.035986,39.6725502 25.3172242,39.6905042 C27.5527867,39.8332211 29.8577216,39.8964181 32.1929981,39.8963412 Z" id="path-1"></path>
    </defs>
    <g id="About-Me-Desktop-HD" stroke="none" stroke-width="1" fill="none" fill-rule="evenodd">
        <g id="Desktop-HD-Copy-17" transform="translate(-506.000000, -2231.000000)">
            <g id="Group-22" transform="translate(192.000000, 1701.000000)">
                <g id="brain-01-copy-3" transform="translate(313.000000, 529.000000)">
                    <g id="Group-6" transform="translate(0.538911, 0.194400)">
                        <mask id="mask-2" fill="white">
                            <use xlink:href="#path-1"></use>
                        </mask>
                        <use id="Oval-8" fill="#FFDCCA" transform="translate(32.261043, 23.305773) rotate(-1.000000) translate(-32.261043, -23.305773) " xlink:href="#path-1"></use>
                        <g id="Group-2" mask="url(#mask-2)" stroke="#FF9863" stroke-width="1.79999979">
                            <g transform="translate(35.886707, 36.479998) rotate(231.000000) translate(-35.886707, -36.479998) translate(27.386707, 27.979998)">
                                <path d="M0,0.207167608 C1.45009591,-0.0690558692 2.81123246,-0.0690558692 4.08340963,0.207167608 C5.99167538,0.621502823 7.65069984,2.49253089 4.08340963,6.22135321 C-1.47830917,12.0349147 1.61890553,15.7796716 4.08340963,14.7890815 C9.03519874,12.7987447 11.8135479,13.4449961 12.4184571,16.7278356" id="Path-5-Copy" stroke-linecap="square"></path>
                                <path d="M10.0804086,15.0294761 C12.4411279,15.0305872 14.3539659,13.1165591 14.3528523,10.7543742 C14.3517377,8.39218927 12.4370934,6.47635893 10.0763741,6.47524734" id="Oval-4-Copy" transform="translate(12.214613, 10.752362) rotate(-105.000000) translate(-12.214613, -10.752362) "></path>
                            </g>
                        </g>
                        <g id="Group-2" mask="url(#mask-2)" stroke="#FF9863" stroke-linecap="square" stroke-width="1.79999979">
                            <g transform="translate(19.652417, -1.500000) scale(-1, 1) rotate(231.000000) translate(-19.652417, 1.500000) translate(11.152417, -10.000000)" id="Path-5-Copy">
                                <path d="M0,0.207167608 C1.45009591,-0.0690558692 2.81123246,-0.0690558692 4.08340963,0.207167608 C5.99167538,0.621502823 7.65069984,2.49253089 4.08340963,6.22135321 C-1.47830917,12.0349147 1.61890553,15.7796716 4.08340963,14.7890815 C9.03519874,12.7987447 11.8135479,13.4449961 12.4184571,16.7278356"></path>
                            </g>
                        </g>
                        <g id="Group-2" mask="url(#mask-2)" stroke="#FF9863" stroke-width="1.79999979">
                            <g transform="translate(35.886707, 8.579999) rotate(231.000000) translate(-35.886707, -8.579999) translate(27.386707, 0.079999)">
                                <path d="M0,0.207167608 C1.45009591,-0.0690558692 2.81123246,-0.0690558692 4.08340963,0.207167608 C5.99167538,0.621502823 7.65069984,2.49253089 4.08340963,6.22135321 C-1.47830917,12.0349147 1.61890553,15.7796716 4.08340963,14.7890815 C9.03519874,12.7987447 11.8135479,13.4449961 12.4184571,16.7278356" id="Path-5-Copy" stroke-linecap="square"></path>
                                <path d="M10.0804086,15.0294761 C12.4411279,15.0305872 14.3539659,13.1165591 14.3528523,10.7543742 C14.3517377,8.39218927 12.4370934,6.47635893 10.0763741,6.47524734" id="Oval-4-Copy" transform="translate(12.214613, 10.752362) rotate(-105.000000) translate(-12.214613, -10.752362) "></path>
                            </g>
                        </g>
                        <g id="Group-2" mask="url(#mask-2)" stroke-width="1.79999979">
                            <g transform="translate(62.420110, 18.832543) rotate(316.000000) translate(-62.420110, -18.832543) translate(53.920110, 10.332543)">
                                <path d="M0,0.207167608 C1.45009591,-0.0690558692 2.81123246,-0.0690558692 4.08340963,0.207167608 C5.99167538,0.621502823 7.65069984,2.49253089 4.08340963,6.22135321 C-1.47830917,12.0349147 1.61890553,15.7796716 4.08340963,14.7890815 C9.03519874,12.7987447 11.8135479,13.4449961 12.4184571,16.7278356" id="Path-5-Copy" stroke="#FF9863" stroke-linecap="square"></path>
                                <path d="M10.0804086,15.0294761 C12.4411279,15.0305872 14.3539659,13.1165591 14.3528523,10.7543742 C14.3517377,8.39218927 12.4370934,6.47635893 10.0763741,6.47524734" id="Oval-4-Copy" stroke="#F2B9B9" transform="translate(12.214613, 10.752362) rotate(-105.000000) translate(-12.214613, -10.752362) "></path>
                            </g>
                        </g>
                        <path d="M5.13227507,11.6329176 C6.57981985,11.3564933 7.93856176,11.3564933 9.20850081,11.6329176 C11.1134094,12.0475541 12.7695151,13.9199427 9.20850081,17.6514764 C3.65656667,23.4692652 6.74833248,27.2167449 9.20850081,26.2254346 C14.1515783,24.2336506 16.9250395,24.8803718 17.5288845,28.1655984" id="Path-5" stroke="#FF9863" stroke-width="1.79999979" stroke-linecap="square" mask="url(#mask-2)"></path>
                    </g>
                </g>
            </g>
        </g>
    </g>
</svg>