<?xml version="1.0" encoding="UTF-8"?>
<svg width="1024px" height="308px" viewBox="0 0 1024 308" version="1.1" xmlns="http://www.w3.org/2000/svg" xmlns:xlink="http://www.w3.org/1999/xlink">
    <!-- Generator: Sketch 60 (88103) - https://sketch.com -->
    <title>Skills</title>
    <desc>Created with Sketch.</desc>
    <g id="About-Me-Desktop-HD" stroke="none" stroke-width="1" fill="none" fill-rule="evenodd">
        <g id="Desktop-HD-Copy-17" transform="translate(-208.000000, -1892.000000)" fill="#B8D1DD" fill-rule="nonzero">
            <path d="M330.393555,2199.49609 C367.479492,2199.49609 396.181641,2190.71777 416.5,2173.16113 C436.818359,2155.60449 446.977539,2133.54362 446.977539,2106.97852 C446.977539,2081.07096 438.297852,2061.27865 420.938477,2047.60156 C409.760091,2038.79036 393.189779,2031.75456 371.227539,2026.49414 L371.227539,2026.49414 L321.12207,2014.46094 C301.790039,2009.85807 289.165039,2005.84701 283.24707,2002.42773 C274.041341,1997.29883 269.438477,1989.53971 269.438477,1979.15039 C269.438477,1967.84049 274.107096,1959.0293 283.444336,1952.7168 C292.781576,1946.4043 305.275065,1943.24805 320.924805,1943.24805 C334.996419,1943.24805 346.766602,1945.68099 356.235352,1950.54688 C370.438477,1957.91146 378.066081,1970.33919 379.118164,1987.83008 L379.118164,1987.83008 L437.508789,1987.83008 C436.456706,1956.92513 425.113932,1933.35189 403.480469,1917.11035 C381.847005,1900.86882 355.70931,1892.74805 325.067383,1892.74805 C288.375977,1892.74805 260.561523,1901.36198 241.624023,1918.58984 C222.686523,1935.81771 213.217773,1957.45117 213.217773,1983.49023 C213.217773,2012.02799 223.015299,2033.00391 242.610352,2046.41797 C254.183268,2054.4401 275.093424,2061.87044 305.34082,2068.70898 L305.34082,2068.70898 L336.114258,2075.61328 C354.131185,2079.55859 367.347982,2084.0957 375.764648,2089.22461 C384.181315,2094.48503 388.389648,2101.91536 388.389648,2111.51562 C388.389648,2127.95443 379.907227,2139.19857 362.942383,2145.24805 C353.999674,2148.4043 342.361003,2149.98242 328.026367,2149.98242 C304.091471,2149.98242 287.192383,2143.9987 277.329102,2132.03125 C271.937174,2125.45573 268.320638,2115.52669 266.479492,2102.24414 L266.479492,2102.24414 L208.483398,2102.24414 C208.483398,2132.49154 219.333008,2156.26204 241.032227,2173.55566 C262.731445,2190.84928 292.518555,2199.49609 330.393555,2199.49609 Z M542.05957,2192 L542.05957,2124.33789 L565.336914,2100.07422 L616.823242,2192 L684.682617,2192 L606.56543,2060.22656 L681.723633,1977.9668 L612.088867,1977.9668 L542.05957,2058.8457 L542.05957,1902.2168 L486.825195,1902.2168 L486.825195,2192 L542.05957,2192 Z M769.901367,1951.33594 L769.901367,1899.45508 L712.891602,1899.45508 L712.891602,1951.33594 L769.901367,1951.33594 Z M769.901367,2192 L769.901367,1976.98047 L712.891602,1976.98047 L712.891602,2192 L769.901367,2192 Z M881.750977,2192 L881.750977,1901.23047 L825.530273,1901.23047 L825.530273,2192 L881.750977,2192 Z M993.995117,2192 L993.995117,1901.23047 L937.774414,1901.23047 L937.774414,2192 L993.995117,2192 Z M1134.64551,2199.29883 C1167.78613,2199.29883 1192.27995,2192.55892 1208.12695,2179.0791 C1223.97396,2165.59928 1231.89746,2148.20703 1231.89746,2126.90234 C1231.89746,2110.72656 1226.37402,2097.24674 1215.32715,2086.46289 C1204.14876,2075.81055 1187.38118,2067.85417 1165.02441,2062.59375 C1131.48926,2055.22917 1111.95996,2050.03451 1106.43652,2047.00977 C1100.91309,2044.11654 1098.15137,2039.44792 1098.15137,2033.00391 C1098.15137,2027.875 1100.7487,2023.40365 1105.94336,2019.58984 C1111.13802,2015.77604 1119.85059,2013.86914 1132.08105,2013.86914 C1146.94173,2013.86914 1157.46257,2017.68294 1163.64355,2025.31055 C1166.93132,2029.51888 1168.96973,2035.23958 1169.75879,2042.47266 L1169.75879,2042.47266 L1225.97949,2042.47266 C1223.48079,2016.17057 1213.7819,1997.66048 1196.88281,1986.94238 C1179.98372,1976.22428 1158.12012,1970.86523 1131.29199,1970.86523 C1103.01725,1970.86523 1081.08789,1977.99967 1065.50391,1992.26855 C1049.91992,2006.53743 1042.12793,2023.60091 1042.12793,2043.45898 C1042.12793,2060.29232 1047.12533,2073.18034 1057.12012,2082.12305 C1067.11491,2091.19727 1084.27702,2098.75911 1108.60645,2104.80859 C1142.40462,2112.83073 1161.93392,2118.48568 1167.19434,2121.77344 C1172.45475,2125.0612 1175.08496,2129.86133 1175.08496,2136.17383 C1175.08496,2142.74935 1171.83008,2147.68099 1165.32031,2150.96875 C1158.81055,2154.25651 1150.03223,2155.90039 1138.98535,2155.90039 C1120.17936,2155.90039 1107.29134,2152.15234 1100.32129,2144.65625 C1096.37598,2140.44792 1093.81152,2133.34635 1092.62793,2123.35156 L1092.62793,2123.35156 L1035.61816,2123.35156 C1035.61816,2145.44531 1043.67318,2163.62663 1059.7832,2177.89551 C1075.89323,2192.16439 1100.84733,2199.29883 1134.64551,2199.29883 Z" id="Skills"></path>
        </g>
    </g>
</svg>