<?xml version="1.0" encoding="UTF-8"?>
<svg width="47px" height="57px" viewBox="0 0 47 57" version="1.1" xmlns="http://www.w3.org/2000/svg" xmlns:xlink="http://www.w3.org/1999/xlink">
    <!-- Generator: Sketch 60 (88103) - https://sketch.com -->
    <title>Group 8</title>
    <desc>Created with Sketch.</desc>
    <g id="About-Me-Desktop-HD" stroke="none" stroke-width="1" fill="none" fill-rule="evenodd">
        <g id="Desktop-HD-Copy-17" transform="translate(-887.000000, -1855.000000)">
            <g id="Group-22" transform="translate(192.000000, 1701.000000)">
                <g id="Group-8" transform="translate(695.000000, 155.000000)">
                    <g id="Group-5-Copy-3" transform="translate(0.000000, 2.000000)">
                        <path d="M1.17798447,1.05627338 L24.5327025,6.31271742 C24.9734112,6.4119077 25.2865097,6.80330749 25.2865097,7.25504073 L25.2865097,52.9477946 C25.2865097,53.4812442 24.8540634,53.9136905 24.3206139,53.9136905 C24.2473004,53.9136905 24.1742253,53.9053436 24.1028002,53.8888111 L0.748082173,48.4829789 C0.310125118,48.3816065 1.38731993e-15,47.9914985 0,47.5419624 L0,1.99859669 C1.56715876e-16,1.46514714 0.432446305,1.03270084 0.965895857,1.03270084 C1.03724571,1.03270084 1.1083759,1.04060659 1.17798447,1.05627338 Z" id="Rectangle" fill="#377475"></path>
                        <path d="M1.03435871,7.37163578 L24.2026498,12.5863968 C24.3789313,12.6260746 24.5041684,12.7826336 24.5041684,12.9633252 L24.5041684,26.7977089 C24.5041684,27.0110887 24.3311899,27.1840673 24.1178101,27.1840673 C24.0892687,27.1840673 24.0608152,27.1809046 24.0329704,27.1746373 L0.864679266,21.9598762 C0.688397811,21.9201985 0.56316064,21.7636395 0.56316064,21.5829479 L0.56316064,7.74856415 C0.56316064,7.53518432 0.736139165,7.3622058 0.949518989,7.3622058 C0.978060396,7.3622058 1.00651392,7.36536842 1.03435871,7.37163578 Z" id="Rectangle-Copy-27" fill="#519596"></path>
                        <path d="M1.03435871,22.6409009 L24.2026498,27.8556619 C24.3789313,27.8953397 24.5041684,28.0518986 24.5041684,28.2325903 L24.5041684,42.066974 C24.5041684,42.2803538 24.3311899,42.4533324 24.1178101,42.4533324 C24.0892687,42.4533324 24.0608152,42.4501697 24.0329704,42.4439024 L0.864679266,37.2291413 C0.688397811,37.1894636 0.56316064,37.0329046 0.56316064,36.8522129 L0.56316064,23.0178292 C0.56316064,22.8044494 0.736139165,22.6314709 0.949518989,22.6314709 C0.978060396,22.6314709 1.00651392,22.6346335 1.03435871,22.6409009 Z" id="Rectangle-Copy-27" fill="#519596"></path>
                        <path d="M1.03435871,43.4813843 L24.2026498,48.6961454 C24.3789313,48.7358231 24.5041684,48.8923821 24.5041684,49.0730737 L24.5041684,52.5903864 C24.5041684,52.8037663 24.3311899,52.9767448 24.1178101,52.9767448 C24.0892687,52.9767448 24.0608152,52.9735822 24.0329704,52.9673148 L0.864679266,47.7525537 C0.688397811,47.712876 0.56316064,47.556317 0.56316064,47.3756254 L0.56316064,43.8583127 C0.56316064,43.6449328 0.736139165,43.4719543 0.949518989,43.4719543 C0.978060396,43.4719543 1.00651392,43.4751169 1.03435871,43.4813843 Z" id="Rectangle-Copy-28" fill="#519596"></path>
                        <path d="M1.40944976,44.1181246 L3.68070842,44.6337094 C3.82146897,44.6656626 3.92137197,44.7907857 3.92137197,44.9351275 L3.92137197,47.7194603 C3.92137197,47.8901642 3.78298916,48.028547 3.61228531,48.028547 C3.58926318,48.028547 3.56631313,48.0259748 3.5438622,48.0208784 L1.27260354,47.5052935 C1.13184299,47.4733403 1.03193999,47.3482172 1.03193999,47.2038755 L1.03193999,44.4195426 C1.03193999,44.2488388 1.1703228,44.110456 1.34102665,44.110456 C1.36404877,44.110456 1.38699883,44.1130281 1.40944976,44.1181246 Z" id="Rectangle-Copy-28" fill="#FF9863"></path>
                        <path d="M6.92592236,45.447607 L9.19718101,45.9631918 C9.33794157,45.995145 9.43784457,46.1202681 9.43784457,46.2646099 L9.43784457,49.0489427 C9.43784457,49.2196466 9.29946175,49.3580294 9.12875791,49.3580294 C9.10573578,49.3580294 9.08278573,49.3554572 9.0603348,49.3503608 L6.78907614,48.8347759 C6.64831558,48.8028227 6.54841259,48.6776996 6.54841259,48.5333579 L6.54841259,45.749025 C6.54841259,45.5783212 6.6867954,45.4399384 6.85749925,45.4399384 C6.88052137,45.4399384 6.90347143,45.4425105 6.92592236,45.447607 Z" id="Rectangle-Copy-31" fill="#377475"></path>
                        <path d="M12.9111743,46.8919969 L15.182433,47.4075817 C15.3231935,47.439535 15.4230965,47.564658 15.4230965,47.7089998 L15.4230965,50.4933327 C15.4230965,50.6640365 15.2847137,50.8024193 15.1140099,50.8024193 C15.0909877,50.8024193 15.0680377,50.7998472 15.0455867,50.7947507 L12.7743281,50.2791659 C12.6335675,50.2472126 12.5336645,50.1220896 12.5336645,49.9777478 L12.5336645,47.193415 C12.5336645,47.0227111 12.6720474,46.8843283 12.8427512,46.8843283 C12.8657733,46.8843283 12.8887234,46.8869005 12.9111743,46.8919969 Z" id="Rectangle-Copy-32" fill="#377475"></path>
                        <path d="M19.7219783,48.3363868 L21.9932369,48.8519717 C22.1339975,48.8839249 22.2339005,49.009048 22.2339005,49.1533897 L22.2339005,51.9377226 C22.2339005,52.1084264 22.0955176,52.2468093 21.9248138,52.2468093 C21.9017917,52.2468093 21.8788416,52.2442371 21.8563907,52.2391406 L19.585132,51.7235558 C19.4443715,51.6916026 19.3444685,51.5664795 19.3444685,51.4221377 L19.3444685,48.6378049 C19.3444685,48.467101 19.4828513,48.3287182 19.6535551,48.3287182 C19.6765773,48.3287182 19.6995273,48.3312904 19.7219783,48.3363868 Z" id="Rectangle-Copy-33" fill="#377475"></path>
                    </g>
                    <g id="Group-7-Copy" transform="translate(17.000000, 0.000000)" stroke-width="2.68579542">
                        <polyline id="Path-14" stroke="#FF9863" points="8.22501435 2.05470675 0 9.78040478 8.22501435 16.8251135"></polyline>
                        <polyline id="Path-14-Copy" stroke="#FF9863" transform="translate(23.191927, 9.439910) scale(-1, 1) translate(-23.191927, -9.439910) " points="27.3044342 2.05470675 19.0794199 9.78040478 27.3044342 16.8251135"></polyline>
                        <line x1="11.1541224" y1="19.0794199" x2="15.6358513" y2="-1.37628578e-13" id="Path-15" stroke="#519596"></line>
                    </g>
                </g>
            </g>
        </g>
    </g>
</svg>