<?xml version="1.0" encoding="UTF-8"?>
<svg width="52px" height="46px" viewBox="0 0 52 46" version="1.1" xmlns="http://www.w3.org/2000/svg" xmlns:xlink="http://www.w3.org/1999/xlink">
    <!-- Generator: Sketch 63.1 (92452) - https://sketch.com -->
    <title>Group 57</title>
    <desc>Created with Sketch.</desc>
    <g id="About-Me-Desktop-HD" stroke="none" stroke-width="1" fill="none" fill-rule="evenodd">
        <g id="Desktop-HD-Copy-29" transform="translate(-399.000000, -1881.000000)" fill-rule="nonzero">
            <g id="Group-57" transform="translate(399.000000, 1881.000000)">
                <path d="M36.8972661,0 C40.8511725,0 44.4878913,1.58320312 47.1382819,4.45781257 C49.7574226,7.29882821 51.2000008,11.1800783 51.2000008,15.386719 C51.2000008,19.7171878 49.5867195,23.6808598 46.1222663,27.8609379 C45.4730724,28.6443236 44.7644208,29.4301603 44.0023035,30.223442 L38.3435029,24.5653283 L42.2325903,20.6762411 L24.2720779,18.2720779 L26.6762411,36.2325903 L30.5653283,32.3435029 L35.8940229,37.6708942 C35.0873742,38.3631578 34.258845,39.0691916 33.4113286,39.7914068 C31.6492193,41.29336 29.6515629,42.9957037 27.578516,44.8085945 C27.031641,45.2875007 26.328516,45.5515632 25.6000004,45.5515632 C24.8710942,45.5515632 24.1683598,45.2875007 23.6207035,44.8078132 C21.5476565,42.9953131 19.5511722,41.2937506 17.7898441,39.7925787 C12.6316408,35.3968755 8.17734392,31.6007817 5.07812508,27.8613285 C1.61367192,23.6808598 1.0658141e-14,19.7171878 1.0658141e-14,15.3871096 C1.0658141e-14,11.1800783 1.44257812,7.29882821 4.06132816,4.45781257 C6.7117189,1.58320312 10.3488283,0 14.3027346,0 C17.2582034,0 19.9648441,0.934375014 22.3472659,2.77695314 C23.5500004,3.70703126 24.6398442,4.84531257 25.6000004,6.17304699 C26.5605473,4.84492197 27.6500004,3.70703126 28.8523442,2.77695314 C31.2351567,0.934375014 33.9417974,0 36.8972661,0 Z" id="Combined-Shape" fill="#FF9863"></path>
                <path d="M31.016243,12 C32.9468613,12 34.7226028,12.7646383 36.0167389,14.152986 C37.2956162,15.5251089 38,17.399633 38,19.4313107 C38,19.6584539 37.9907088,19.8835076 37.9719777,20.1068327 L24.2720779,18.2720779 L26.3423267,33.7372319 C26.0968462,33.9075176 25.8029182,34 25.5,34 C25.1440888,34 24.8009567,33.872466 24.5335464,33.6407917 C23.5213165,32.7654101 22.5464707,31.9436079 21.6864472,31.2185881 C19.1677933,29.0955991 16.9928437,27.2622028 15.4795532,25.4561623 C13.7879257,23.4371248 13,21.5227935 13,19.4314993 C13,17.399633 13.7043838,15.5251089 14.9830704,14.152986 C16.2772064,12.7646383 18.0531387,12 19.983757,12 C21.426857,12 22.7484589,12.4512743 23.9117508,13.3411827 C24.4990234,13.7903818 25.0311737,14.3401365 25.5,14.9813913 C25.969017,14.3399479 26.5009766,13.7903818 27.0880585,13.3411827 C28.2515411,12.4512743 29.573143,12 31.016243,12 Z" id="Combined-Shape" fill="#377475"></path>
            </g>
        </g>
    </g>
</svg>